<?xml version="1.0" encoding="utf-8"?>
<!-- Generator: Adobe Illustrator 23.0.1, SVG Export Plug-In . SVG Version: 6.00 Build 0)  -->
<svg version="1.1" id="Calque_2" xmlns="http://www.w3.org/2000/svg" xmlns:xlink="http://www.w3.org/1999/xlink" x="0px" y="0px"
	 viewBox="0 0 526 528" style="enable-background:new 0 0 526 528;" xml:space="preserve">
<style type="text/css">
	.st0{fill:#FFD35C;}
</style>
<circle id="rond_ext" cx="263" cy="264" r="253"/>
<circle id="rond_quasi-ext" class="st0" cx="263" cy="264" r="239"/>
<circle id="rond_centre" cx="263" cy="264" r="38"/>
<path d="M232,211c0,0,31-18,59,0c16-27,82-135,82-135s-100-65-216,0C175,108,232,211,232,211z"/>
<path d="M233.47,315.66c0,0-31.09-17.85-29.5-51.1c-31.38-0.36-157.91-3.51-157.91-3.51s-6.29,119.1,108,187.06
	C172.77,416.53,233.47,315.66,233.47,315.66z"/>
<path d="M324.15,264.86c0,0,0.09,35.85-29.5,51.1c15.38,27.36,75.91,138.51,75.91,138.51s106.29-54.1,108-187.06
	C441.85,267,324.15,264.86,324.15,264.86z"/>
</svg>
